<svg xmlns="http://www.w3.org/2000/svg" viewBox="0 0 73.08 69.18"><defs><style>.cls-1{fill:#fff;}</style></defs><g id="Layer_2" data-name="Layer 2"><g id="Layer_1-2" data-name="Layer 1"><path class="cls-1" d="M36.5,35.36A17.68,17.68,0,1,1,54.18,17.69,17.7,17.7,0,0,1,36.5,35.36Zm0-29.8A12.13,12.13,0,1,0,48.62,17.69,12.15,12.15,0,0,0,36.5,5.56Z"/><path class="cls-1" d="M70.3,69.18a2.78,2.78,0,0,1-2.78-2.78,31,31,0,0,0-62-2.25A2.78,2.78,0,1,1,0,63.76,36.58,36.58,0,0,1,73.08,66.4,2.77,2.77,0,0,1,70.3,69.18Z"/></g></g></svg>