<svg xmlns="http://www.w3.org/2000/svg" viewBox="0 0 81.85 81.85"><defs><style>.cls-1{fill:#f90;}</style></defs><g id="Layer_2" data-name="Layer 2"><g id="Layer_1-2" data-name="Layer 1"><path class="cls-1" d="M40.92,0A40.93,40.93,0,1,0,81.85,40.93,40.92,40.92,0,0,0,40.92,0ZM51.63,45.07H50.14a5,5,0,0,0-5,5v1.56c0,2.77-1.87,5-4.15,5s-4.14-2.27-4.14-5V50.1a5,5,0,0,0-5-5H30.22c-2.77,0-5-1.87-5-4.15s2.26-4.14,5-4.14h1.56a5.06,5.06,0,0,0,5-5V30.19c0-2.77,1.86-5,4.14-5s4.15,2.27,4.15,5v1.55a5,5,0,0,0,5,5h1.49c2.77,0,5,1.86,5,4.14S54.4,45.07,51.63,45.07Z"/></g></g></svg>