<svg xmlns="http://www.w3.org/2000/svg" xmlns:xlink="http://www.w3.org/1999/xlink" viewBox="0 0 490.41 403.03"><defs><style>.cls-1{fill:url(#linear-gradient);}.cls-2{fill:#fff;}</style><linearGradient id="linear-gradient" x1="1.2" y1="202.65" x2="489.2" y2="202.65" gradientTransform="translate(-1.21 1.47) rotate(-0.34)" gradientUnits="userSpaceOnUse"><stop offset="0" stop-color="#29abe2"/><stop offset="1" stop-color="#0071bc"/></linearGradient></defs><g id="Layer_2" data-name="Layer 2"><g id="Layer_1-2" data-name="Layer 1"><path class="cls-1" d="M380.17,0,0,2.28C131.24,113.58,208.42,383.88,490.41,403l-1.77-295.84A107.84,107.84,0,0,0,380.17,0Z"/><path class="cls-2" d="M394.38,121.44c-.41-.4-1.63-1.63-11.89-.43a1.51,1.51,0,0,0-1.29,1.8,6.58,6.58,0,0,1-.41,4.29c-12.41-19.82-15-20-16.11-20-2-.11-18.13-.22-25.36-.26a1.34,1.34,0,0,0-.35,0l-3.74,0-3.75,0a1.39,1.39,0,0,0-.35,0c-7.22,0-23.35.15-25.36.26-1.12.07-3.7.22-16.11,20a6.58,6.58,0,0,1-.41-4.29A1.51,1.51,0,0,0,288,121c-10.27-1.2-11.49,0-11.89.43-1.13,1.13-3.13,6.15-2.05,8.26a2.09,2.09,0,0,0,2.25,1.12c.87-.14,4.74.87,7.48,1.92a79.1,79.1,0,0,0-6,5.39c-2.68,2.85-1.81,17.66-.6,29.58a1.52,1.52,0,0,0,1.49,1.35h.16l1.49-.15a1.51,1.51,0,0,0,1.34-1.64c-1.25-12.31-1.5-24.51-.6-26,1.7-1.81,6.82-6.05,10.74-9.17l.18-.17.17-.19c.05-.07.11-.14.15-.21,6.51-10.53,12.52-18.77,14.09-19.93,2.23-.08,12.41-.17,28.89-.26,20.74.11,27.28.2,28.89.26,1.58,1.15,7.48,9.23,14.1,19.93l.15.21.17.19a1.57,1.57,0,0,0,.24.21c3.86,3.08,9,7.32,10.62,9.06,1,1.61.71,13.82-.54,26.12a1.51,1.51,0,0,0,1.34,1.64l1.49.15a1.51,1.51,0,0,0,1.65-1.34c1.21-11.92,2.08-26.73-.6-29.58-1.24-1.32-3.71-3.46-6-5.39,2.74-1.05,6.59-2.06,7.49-1.92a2.08,2.08,0,0,0,2.24-1.12C397.51,127.59,395.51,122.57,394.38,121.44Zm-106.67,10a1.59,1.59,0,0,0-.41-.36,34.6,34.6,0,0,0-10.6-3.25,12.07,12.07,0,0,1,1.41-4.15c1-.3,4.58-.17,8,.16a9.05,9.05,0,0,0,2.49,6.9Zm95.44-.36a1.59,1.59,0,0,0-.41.36l-.87-.7a9.07,9.07,0,0,0,2.49-6.9c3.4-.33,7-.46,8-.16a12.07,12.07,0,0,1,1.41,4.15A34.69,34.69,0,0,0,383.15,131.07Z"/><path class="cls-2" d="M301.49,144.87a50.87,50.87,0,0,0-6.83-1.33,3.45,3.45,0,0,0-3.92,3.42h0a3.44,3.44,0,0,0,2.44,3.29c4.57,1.4,14.11,4.15,15.65,3.32C310.88,152.49,305.71,146.09,301.49,144.87Z"/><path class="cls-2" d="M353.32,159.42c-1.5-.4-18.09,0-18.09,0s-16.6-.4-18.1,0-.81,6-.54,7.35,18.64,1.63,18.64,1.63,18.36-.27,18.63-1.63S354.81,159.83,353.32,159.42Z"/><path class="cls-2" d="M361.62,153.57c1.54.83,11.08-1.92,15.65-3.32a3.44,3.44,0,0,0,2.44-3.29h0a3.45,3.45,0,0,0-3.92-3.42,50.87,50.87,0,0,0-6.83,1.33C364.74,146.09,359.57,152.49,361.62,153.57Z"/></g></g></svg>