<svg xmlns="http://www.w3.org/2000/svg" viewBox="0 0 123.04 62.3"><defs><style>.cls-1{fill:#fff;}</style></defs><g id="Layer_2" data-name="Layer 2"><g id="Layer_1-2" data-name="Layer 1"><path class="cls-1" d="M120.67,14.68c-.4-.4-1.63-1.63-11.89-.43a1.5,1.5,0,0,0-1,.62,1.46,1.46,0,0,0-.25,1.18,6.51,6.51,0,0,1-.41,4.29C94.67.52,92.09.37,91,.3,89,.19,72.84.08,65.62,0a1.42,1.42,0,0,0-.36,0L61.52,0,57.77,0a1.27,1.27,0,0,0-.34,0C50.2.08,34.07.19,32.06.3c-1.12.07-3.7.22-16.11,20a6.58,6.58,0,0,1-.41-4.29,1.49,1.49,0,0,0-1.29-1.8c-10.26-1.2-11.48,0-11.89.43-1.13,1.14-3.13,6.16-2,8.26a2.06,2.06,0,0,0,2.25,1.12c.88-.14,4.74.87,7.48,1.92-2.32,1.93-4.78,4.07-6,5.39C1.33,34.22,2.21,49,3.41,61a1.52,1.52,0,0,0,1.5,1.35h.15l1.49-.15A1.5,1.5,0,0,0,7.89,60.5c-1.24-12.3-1.5-24.51-.6-26C9,32.64,14.11,28.4,18,25.29l.18-.18.17-.19a1,1,0,0,0,.15-.21C25.05,14.18,31.05,5.94,32.62,4.78,34.85,4.7,45,4.61,61.51,4.52c20.74.11,27.28.2,28.89.26C92,5.93,97.88,14,104.5,24.71c0,.08.1.14.15.21l.18.19a1.61,1.61,0,0,0,.23.22c3.86,3.07,9,7.31,10.63,9.05,1,1.61.7,13.82-.54,26.12a1.49,1.49,0,0,0,1.34,1.64l1.49.15A1.49,1.49,0,0,0,119.62,61c1.21-11.92,2.09-26.73-.6-29.58-1.24-1.32-3.71-3.45-6-5.39,2.74-1.05,6.6-2.06,7.49-1.92a2.09,2.09,0,0,0,2.25-1.12C123.81,20.84,121.8,15.82,120.67,14.68ZM14,24.67a1.57,1.57,0,0,0-.42-.35A34.06,34.06,0,0,0,3,21.07,12.06,12.06,0,0,1,4.4,16.91c1-.29,4.59-.17,8,.16A9.05,9.05,0,0,0,14.87,24Zm95.43-.35a1.39,1.39,0,0,0-.41.35l-.86-.7a9.09,9.09,0,0,0,2.48-6.9c3.4-.32,7-.45,8-.16A12.06,12.06,0,0,1,120,21.07,34.15,34.15,0,0,0,109.44,24.32Z"/><path class="cls-1" d="M27.78,38.11A51,51,0,0,0,21,36.78,3.45,3.45,0,0,0,17,40.2h0a3.43,3.43,0,0,0,2.43,3.29c4.57,1.4,14.12,4.15,15.66,3.33C37.17,45.73,32,39.34,27.78,38.11Z"/><path class="cls-1" d="M79.61,52.67c-1.5-.41-18.09,0-18.09,0s-16.6-.41-18.09,0-.82,6-.55,7.34,18.64,1.64,18.64,1.64S79.88,61.37,80.15,60,81.11,53.07,79.61,52.67Z"/><path class="cls-1" d="M87.91,46.82c1.54.82,11.08-1.93,15.65-3.33A3.44,3.44,0,0,0,106,40.2h0a3.46,3.46,0,0,0-3.92-3.42,50.87,50.87,0,0,0-6.83,1.33C91,39.34,85.87,45.73,87.91,46.82Z"/></g></g></svg>