<svg xmlns="http://www.w3.org/2000/svg" viewBox="0 0 288.22 288.21"><g id="Layer_2" data-name="Layer 2"><g id="Layer_1-2" data-name="Layer 1"><path d="M75.87,0H0V75.87H75.87ZM64.19,64.19H11.67V11.67H64.19Z"/><rect x="24.85" y="24.85" width="26.17" height="26.17"/><path d="M288.21,0H212.34V75.87h75.87ZM276.54,64.19H224V11.67h52.53Z"/><rect x="237.19" y="24.85" width="26.17" height="26.17"/><path d="M0,288.21H75.87V212.34H0ZM11.67,224H64.19v52.53H11.67Z"/><rect x="24.85" y="237.19" width="26.17" height="26.17"/><polygon points="165.87 72.71 181.58 72.71 181.58 84.68 191.22 84.68 191.22 72.71 191.22 50.38 181.58 50.38 165.87 50.38 155.63 50.38 141.03 50.38 141.03 72.71 125.26 72.71 125.26 72.71 125.26 87.17 141.03 87.17 141.03 72.71 155.63 72.71 155.63 97.24 165.87 97.24 165.87 72.71"/><polygon points="181.58 30 191.22 30 191.22 9.64 191.22 0 181.58 0 161.22 0 161.22 9.64 181.58 9.64 181.58 30"/><rect x="96.99" width="20.41" height="17.52"/><polygon points="275.36 96.98 262.15 96.98 262.15 112.13 275.36 112.13 275.36 116.73 249.01 116.73 249.01 132.57 275.36 132.57 275.36 148.04 288.22 148.04 288.22 132.57 288.22 116.81 288.22 97.24 288.22 96.98 275.36 96.98"/><path d="M211.3,205.74v-9.51H186.66v24.2H211.3Zm-9.51,2v3.35h-5.62v-5.52h5.62Z"/><rect x="96.99" y="204.67" width="20.41" height="20.75"/><polygon points="85.75 191.23 101.84 191.23 116.42 191.23 116.42 175.21 85.75 175.21 85.75 191.23"/><polygon points="117.4 102.3 117.4 97.24 117.4 84.11 102.26 84.11 102.26 102.1 85.56 102.1 85.56 102.3 85.56 116.81 117.4 116.81 117.4 102.3"/><rect x="0.01" y="132.57" width="21.74" height="15.47"/><polygon points="27.37 116.78 19.27 116.78 19.27 97.24 0.01 97.24 0.01 116.81 19.23 116.81 19.23 125.05 27.37 125.05 27.37 116.78"/><polygon points="165.87 271.63 155.63 271.63 155.63 288.21 165.87 288.21 181.58 288.21 181.58 259.88 165.87 259.88 165.87 271.63"/><rect x="0.01" y="162.67" width="26.85" height="28.57"/><path d="M34.16,191.23H74.47v-16H58.7V162.67H34.16Zm5.15-18h7.61v7.61H39.31Z"/><polygon points="99.76 155.22 85.75 155.22 85.75 162.67 85.75 167.76 99.76 167.76 99.76 162.67 99.76 155.22"/><rect x="193.63" y="156.75" width="13.66" height="12.54"/><rect x="275.36" y="162.67" width="12.86" height="12.54"/><polygon points="119.44 67.56 131.95 67.56 131.95 49.83 119.44 49.83 113.19 49.83 96.99 49.83 96.99 67.56 113.19 67.56 119.44 67.56"/><rect x="96.99" y="234.04" width="20.41" height="15.77"/><rect x="165.87" y="231.71" width="15.71" height="15.34"/><polygon points="275.36 247.05 275.36 266.58 251.71 266.58 251.71 288.21 275.36 288.21 288.22 288.21 288.22 247.05 288.22 225.43 275.36 225.43 275.36 247.05"/><rect x="222.07" y="103.37" width="19.6" height="13.41"/><polygon points="216.38 204.67 238.42 204.67 238.42 175.21 216.38 175.21 181.58 175.21 181.58 162.67 181.58 148.04 165.87 148.04 165.87 162.67 155.63 162.67 155.63 175.21 155.63 191.23 155.63 204.67 141.03 204.67 141.03 191.23 125.26 191.23 125.26 204.67 125.26 225.43 141.03 225.43 141.03 247.05 155.63 247.05 155.63 225.43 165.87 225.43 165.87 205.72 181.58 205.72 181.58 191.23 181.58 189.83 216.38 189.83 216.38 191.23 216.38 204.67"/><polygon points="248.79 204.67 248.79 205.03 265.79 205.03 265.79 204.67 265.79 188.05 248.79 188.05 248.79 204.67"/><polygon points="265.85 216.23 275.36 216.23 277.1 216.23 277.1 205 275.36 205 265.85 205 265.85 216.23"/><polygon points="259.45 225.43 259.45 224.11 220.47 224.11 220.47 225.43 220.47 245.73 259.45 245.73 259.45 225.43"/><rect x="221.92" y="257.84" width="18.69" height="30.37"/><rect x="187.18" y="237.4" width="24.82" height="15.04"/><rect x="203.53" y="260.03" width="8.47" height="8.61"/><rect x="187.18" y="275.8" width="24.82" height="12.41"/><polygon points="58.7 116.81 74.47 116.81 74.47 97.24 74.47 96.98 58.7 96.98 58.7 97.24 58.7 116.81"/><path d="M165.87,132.57h15.71V148h63.7V132.57h-28.9V97.24h-34.8v19.57h-26v15.76Zm36.93-3.14v-9.2H212v9.2Z"/><polygon points="141.03 116.81 155.63 116.81 155.63 97.24 141.03 97.24 125.26 97.24 125.26 116.81 125.26 132.57 141.03 132.57 141.03 116.81"/><polygon points="155.63 17.96 141.03 17.96 141.03 0 125.26 0 125.26 43.8 155.63 43.8 155.63 17.96"/><polygon points="155.63 132.57 141.03 132.57 141.03 148.04 125.26 148.04 125.26 132.57 117.4 132.57 74.47 132.57 58.7 132.57 26.86 132.57 26.86 148.04 58.7 148.04 58.7 162.67 74.47 162.67 74.47 148.04 117.4 148.04 117.4 162.67 125.26 162.67 125.26 175.21 141.03 175.21 141.03 162.67 155.63 162.67 155.63 148.04 155.63 132.57"/><polygon points="115.34 269.52 96.99 269.52 96.99 288.21 115.34 288.21 117.4 288.21 146.28 288.21 146.28 260.32 115.34 260.32 115.34 269.52"/><rect x="162.5" y="18.4" width="11.39" height="11.39"/><polygon points="263.43 148.04 263.43 155.39 248.79 155.39 248.79 170.06 263.46 170.06 263.46 155.41 272.62 155.41 272.62 148.04 272.62 146.22 263.43 146.22 263.43 148.04"/><rect x="40.01" y="117.09" width="9.78" height="9.78"/><rect x="199" y="79.86" width="9.78" height="9.78"/></g></g></svg>