<svg xmlns="http://www.w3.org/2000/svg" xmlns:xlink="http://www.w3.org/1999/xlink" viewBox="0 0 238.06 250.06"><defs><style>.cls-1{isolation:isolate;}.cls-2{mix-blend-mode:color-burn;}.cls-3{fill:#fff;}.cls-4{fill:#fefefe;}.cls-5{fill:#fdfdfd;}.cls-6{fill:#fcfcfc;}.cls-7{fill:#fbfbfb;}.cls-8{fill:#fafafa;}.cls-9{fill:#f9f9f9;}.cls-10{fill:#f8f8f8;}.cls-11{fill:#f7f7f7;}.cls-12{fill:#f6f6f6;}.cls-13{fill:#f5f5f5;}.cls-14{fill:#f4f4f4;}.cls-15{fill:#f3f3f3;}.cls-16{fill:#f2f2f2;}.cls-17{fill:#f1f1f1;}.cls-18{fill:#f0f0f0;}.cls-19{fill:#efefef;}.cls-20{fill:#eee;}.cls-21{fill:#ededed;}.cls-22{fill:#ececec;}.cls-23{fill:#ebebeb;}.cls-24{fill:#eaeaea;}.cls-25{fill:#e9e9e9;}.cls-26{fill:#e8e8e8;}.cls-27{fill:#e7e7e7;}.cls-28{fill:#e6e6e6;}.cls-29{fill:#e5e5e5;}.cls-30{fill:#e4e4e4;}.cls-31{fill:#e3e3e3;}.cls-32{fill:#e2e2e2;}.cls-33{fill:#e1e1e1;}.cls-173,.cls-34{fill:#e0e0e0;}.cls-35{fill:#dfdfdf;}.cls-36{fill:#dedede;}.cls-37{fill:#ddd;}.cls-38{fill:#dcdcdc;}.cls-39{fill:#dbdbdb;}.cls-40{fill:#dadada;}.cls-41{fill:#d9d9d9;}.cls-42{fill:#d8d8d8;}.cls-43{fill:#d7d7d7;}.cls-44{fill:#d6d6d6;}.cls-45{fill:#d5d5d5;}.cls-46{fill:#d4d4d4;}.cls-47{fill:#d3d3d3;}.cls-48{fill:#d2d2d2;}.cls-49{fill:#d1d1d1;}.cls-50{fill:#d0d0d0;}.cls-51{fill:#cfcfcf;}.cls-52{fill:#cecece;}.cls-53{fill:#cdcdcd;}.cls-54{fill:#ccc;}.cls-55{fill:#cbcbcb;}.cls-56{fill:#cacaca;}.cls-57{fill:#c9c9c9;}.cls-58{fill:#c8c8c8;}.cls-59{fill:#c7c7c7;}.cls-60{fill:#c6c6c6;}.cls-61{fill:#c5c5c5;}.cls-62{fill:#c4c4c4;}.cls-63{fill:#c3c3c3;}.cls-64{fill:#c2c2c2;}.cls-65{fill:#c1c1c1;}.cls-66{fill:silver;}.cls-67{fill:#bfbfbf;}.cls-68{fill:#bebebe;}.cls-69{fill:#bdbdbd;}.cls-70{fill:#bcbcbc;}.cls-71{fill:#bbb;}.cls-72{fill:#bababa;}.cls-73{fill:#b9b9b9;}.cls-74{fill:#b8b8b8;}.cls-75{fill:#b7b7b7;}.cls-76{fill:#b6b6b6;}.cls-77{fill:#b5b5b5;}.cls-78{fill:#b4b4b4;}.cls-79{fill:#b3b3b3;}.cls-80{fill:#b2b2b2;}.cls-81{fill:#b1b1b1;}.cls-82{fill:#b0b0b0;}.cls-83{fill:#afafaf;}.cls-84{fill:#aeaeae;}.cls-85{fill:#adadad;}.cls-86{fill:#acacac;}.cls-87{fill:#ababab;}.cls-88{fill:#aaa;}.cls-89{fill:#a9a9a9;}.cls-90{fill:#a8a8a8;}.cls-91{fill:#a7a7a7;}.cls-92{fill:#a6a6a6;}.cls-93{fill:#a5a5a5;}.cls-94{fill:#a4a4a4;}.cls-95{fill:#a3a3a3;}.cls-96{fill:#a2a2a2;}.cls-97{fill:#a1a1a1;}.cls-98{fill:#a0a0a0;}.cls-99{fill:#9f9f9f;}.cls-100{fill:#9e9e9e;}.cls-101{fill:#9d9d9d;}.cls-102{fill:#9c9c9c;}.cls-103{fill:#9b9b9b;}.cls-104{fill:#9a9a9a;}.cls-105{fill:#999;}.cls-106{fill:#989898;}.cls-107{fill:#979797;}.cls-108{fill:#969696;}.cls-109{fill:#959595;}.cls-110{fill:#949494;}.cls-111{fill:#939393;}.cls-112{fill:#929292;}.cls-113{fill:#919191;}.cls-114{fill:#909090;}.cls-115{fill:#8f8f8f;}.cls-116{fill:#8e8e8e;}.cls-117{fill:#8d8d8d;}.cls-118{fill:#8c8c8c;}.cls-119{fill:#8b8b8b;}.cls-120{fill:#8a8a8a;}.cls-121{fill:#898989;}.cls-122{fill:#888;}.cls-123{fill:#878787;}.cls-124{fill:#868686;}.cls-125{fill:#858585;}.cls-126{fill:#848484;}.cls-127{fill:#838383;}.cls-128{fill:#828282;}.cls-129{fill:#818181;}.cls-130{fill:gray;}.cls-131{fill:#7f7f7f;}.cls-132{fill:#7e7e7e;}.cls-133{fill:#7d7d7d;}.cls-134{fill:#7c7c7c;}.cls-135{fill:#7b7b7b;}.cls-136{fill:#7a7a7a;}.cls-137{fill:#797979;}.cls-138{fill:#787878;}.cls-139{fill:#777;}.cls-140{fill:#767676;}.cls-141{fill:#757575;}.cls-142{fill:#747474;}.cls-143{fill:#737373;}.cls-144{fill:#727272;}.cls-145{fill:#717171;}.cls-146{fill:#707070;}.cls-147{fill:#6f6f6f;}.cls-148{fill:#6e6e6e;}.cls-149{fill:#6d6d6d;}.cls-150{fill:#6c6c6c;}.cls-151{fill:#6b6b6b;}.cls-152{fill:#6a6a6a;}.cls-153{fill:#696969;}.cls-154{fill:#686868;}.cls-155{fill:#676767;}.cls-156{fill:#666;}.cls-157{fill:#656565;}.cls-158{fill:#646464;}.cls-159{fill:#636363;}.cls-160{fill:#626262;}.cls-161{fill:#616161;}.cls-162{fill:#606060;}.cls-163{fill:#5f5f5f;}.cls-164{fill:#5e5e5e;}.cls-165{fill:#5d5d5d;}.cls-166{fill:#5c5c5c;}.cls-167{fill:#5b5b5b;}.cls-168{fill:#5a5a5a;}.cls-169{fill:#595959;}.cls-170{fill:url(#linear-gradient);}.cls-171{fill:url(#linear-gradient-2);}.cls-172{fill:url(#linear-gradient-3);}.cls-173{mix-blend-mode:multiply;}</style><linearGradient id="linear-gradient" x1="142.87" y1="261.99" x2="222.68" y2="70.11" gradientTransform="matrix(0, 1.02, -0.99, 0, 300.13, -83.19)" gradientUnits="userSpaceOnUse"><stop offset="0.17" stop-color="#a4b3bd"/><stop offset="0.73" stop-color="#eff1f3"/><stop offset="0.85" stop-color="#fff"/></linearGradient><linearGradient id="linear-gradient-2" x1="94.29" y1="193.55" x2="178.53" y2="12.88" gradientUnits="userSpaceOnUse"><stop offset="0" stop-color="#fdfdfd"/><stop offset="0.3" stop-color="#f4f4f4"/><stop offset="0.79" stop-color="#ddd"/><stop offset="1" stop-color="#d0d0d0"/></linearGradient><linearGradient id="linear-gradient-3" x1="80.21" y1="105.25" x2="208.54" y2="105.25" gradientUnits="userSpaceOnUse"><stop offset="0" stop-color="#29abe2"/><stop offset="1" stop-color="#0071bc"/></linearGradient></defs><g class="cls-1"><g id="Layer_2" data-name="Layer 2"><g id="Layer_1-2" data-name="Layer 1"><g class="cls-2"><ellipse class="cls-3" cx="101.55" cy="147" rx="103.06" ry="101.54" transform="translate(-48.44 244.09) rotate(-88.28)"/><ellipse class="cls-4" cx="101.76" cy="146.74" rx="103.06" ry="101.54" transform="translate(-47.97 244.04) rotate(-88.28)"/><ellipse class="cls-5" cx="101.97" cy="146.48" rx="103.06" ry="101.54" transform="translate(-47.5 244) rotate(-88.28)"/><ellipse class="cls-6" cx="102.18" cy="146.21" rx="103.06" ry="101.54" transform="translate(-47.04 243.95) rotate(-88.28)"/><ellipse class="cls-7" cx="102.39" cy="145.95" rx="103.06" ry="101.54" transform="translate(-46.57 243.91) rotate(-88.28)"/><ellipse class="cls-8" cx="102.6" cy="145.69" rx="103.06" ry="101.54" transform="translate(-46.1 243.86) rotate(-88.28)"/><ellipse class="cls-9" cx="102.81" cy="145.42" rx="103.06" ry="101.54" transform="translate(-45.63 243.82) rotate(-88.28)"/><ellipse class="cls-10" cx="103.02" cy="145.16" rx="103.06" ry="101.54" transform="translate(-45.17 243.77) rotate(-88.28)"/><ellipse class="cls-11" cx="103.23" cy="144.9" rx="103.06" ry="101.54" transform="translate(-44.7 243.73) rotate(-88.28)"/><ellipse class="cls-12" cx="103.44" cy="144.63" rx="103.06" ry="101.54" transform="translate(-44.23 243.68) rotate(-88.28)"/><ellipse class="cls-13" cx="103.65" cy="144.37" rx="103.06" ry="101.54" transform="translate(-43.77 243.64) rotate(-88.28)"/><ellipse class="cls-14" cx="103.86" cy="144.11" rx="103.06" ry="101.54" transform="translate(-43.3 243.59) rotate(-88.28)"/><ellipse class="cls-15" cx="104.07" cy="143.84" rx="103.06" ry="101.54" transform="translate(-42.83 243.55) rotate(-88.28)"/><ellipse class="cls-16" cx="104.28" cy="143.58" rx="103.06" ry="101.54" transform="translate(-42.36 243.5) rotate(-88.28)"/><ellipse class="cls-17" cx="104.5" cy="143.32" rx="103.06" ry="101.54" transform="translate(-41.9 243.46) rotate(-88.28)"/><ellipse class="cls-18" cx="104.71" cy="143.05" rx="103.06" ry="101.54" transform="translate(-41.43 243.42) rotate(-88.28)"/><ellipse class="cls-19" cx="104.92" cy="142.79" rx="103.06" ry="101.54" transform="translate(-40.96 243.37) rotate(-88.28)"/><ellipse class="cls-20" cx="105.13" cy="142.53" rx="103.06" ry="101.54" transform="translate(-40.49 243.33) rotate(-88.28)"/><ellipse class="cls-21" cx="105.34" cy="142.26" rx="103.06" ry="101.54" transform="translate(-40.03 243.28) rotate(-88.28)"/><ellipse class="cls-22" cx="105.55" cy="142" rx="103.06" ry="101.54" transform="translate(-39.56 243.24) rotate(-88.28)"/><ellipse class="cls-23" cx="105.76" cy="141.74" rx="103.06" ry="101.54" transform="translate(-39.09 243.19) rotate(-88.28)"/><ellipse class="cls-24" cx="105.97" cy="141.47" rx="103.06" ry="101.54" transform="translate(-38.62 243.15) rotate(-88.28)"/><ellipse class="cls-25" cx="106.18" cy="141.21" rx="103.06" ry="101.54" transform="translate(-38.16 243.1) rotate(-88.28)"/><ellipse class="cls-26" cx="106.39" cy="140.95" rx="103.06" ry="101.54" transform="translate(-37.69 243.06) rotate(-88.28)"/><ellipse class="cls-27" cx="106.6" cy="140.68" rx="103.06" ry="101.54" transform="translate(-37.22 243.01) rotate(-88.28)"/><ellipse class="cls-28" cx="106.81" cy="140.42" rx="103.06" ry="101.54" transform="translate(-36.75 242.97) rotate(-88.28)"/><ellipse class="cls-29" cx="107.02" cy="140.16" rx="103.06" ry="101.54" transform="translate(-36.29 242.92) rotate(-88.28)"/><ellipse class="cls-30" cx="107.23" cy="139.89" rx="103.06" ry="101.54" transform="translate(-35.82 242.88) rotate(-88.28)"/><ellipse class="cls-31" cx="107.44" cy="139.63" rx="103.06" ry="101.54" transform="translate(-35.35 242.83) rotate(-88.28)"/><ellipse class="cls-32" cx="107.65" cy="139.37" rx="103.06" ry="101.54" transform="translate(-34.88 242.79) rotate(-88.28)"/><ellipse class="cls-33" cx="107.87" cy="139.1" rx="103.06" ry="101.54" transform="translate(-34.42 242.74) rotate(-88.28)"/><ellipse class="cls-34" cx="108.08" cy="138.84" rx="103.06" ry="101.54" transform="translate(-33.95 242.7) rotate(-88.28)"/><ellipse class="cls-35" cx="108.29" cy="138.58" rx="103.06" ry="101.54" transform="translate(-33.48 242.65) rotate(-88.28)"/><ellipse class="cls-36" cx="108.5" cy="138.31" rx="103.06" ry="101.54" transform="translate(-33.01 242.61) rotate(-88.28)"/><ellipse class="cls-37" cx="108.71" cy="138.05" rx="103.06" ry="101.54" transform="translate(-32.55 242.56) rotate(-88.28)"/><ellipse class="cls-38" cx="108.92" cy="137.79" rx="103.06" ry="101.54" transform="translate(-32.08 242.52) rotate(-88.28)"/><ellipse class="cls-39" cx="109.13" cy="137.52" rx="103.06" ry="101.54" transform="translate(-31.61 242.47) rotate(-88.28)"/><ellipse class="cls-40" cx="109.34" cy="137.26" rx="103.06" ry="101.54" transform="translate(-31.14 242.43) rotate(-88.28)"/><ellipse class="cls-41" cx="109.55" cy="137" rx="103.06" ry="101.54" transform="translate(-30.68 242.38) rotate(-88.28)"/><ellipse class="cls-42" cx="109.76" cy="136.73" rx="103.06" ry="101.54" transform="translate(-30.21 242.34) rotate(-88.28)"/><ellipse class="cls-43" cx="109.97" cy="136.47" rx="103.06" ry="101.54" transform="translate(-29.74 242.29) rotate(-88.28)"/><ellipse class="cls-44" cx="110.18" cy="136.21" rx="103.06" ry="101.54" transform="translate(-29.27 242.25) rotate(-88.28)"/><ellipse class="cls-45" cx="110.39" cy="135.94" rx="103.06" ry="101.54" transform="translate(-28.81 242.2) rotate(-88.28)"/><ellipse class="cls-46" cx="110.6" cy="135.68" rx="103.06" ry="101.54" transform="translate(-28.34 242.16) rotate(-88.28)"/><ellipse class="cls-47" cx="110.81" cy="135.42" rx="103.06" ry="101.54" transform="translate(-27.87 242.11) rotate(-88.28)"/><ellipse class="cls-48" cx="111.02" cy="135.15" rx="103.06" ry="101.54" transform="translate(-27.4 242.07) rotate(-88.28)"/><ellipse class="cls-49" cx="111.24" cy="134.89" rx="103.06" ry="101.54" transform="translate(-26.94 242.03) rotate(-88.28)"/><ellipse class="cls-50" cx="111.45" cy="134.63" rx="103.06" ry="101.54" transform="matrix(0.03, -1, 1, 0.03, -26.47, 241.98)"/><ellipse class="cls-51" cx="111.66" cy="134.36" rx="103.06" ry="101.54" transform="translate(-26 241.94) rotate(-88.28)"/><ellipse class="cls-52" cx="111.87" cy="134.1" rx="103.06" ry="101.54" transform="translate(-25.53 241.89) rotate(-88.28)"/><ellipse class="cls-53" cx="112.08" cy="133.84" rx="103.06" ry="101.54" transform="translate(-25.07 241.85) rotate(-88.28)"/><ellipse class="cls-54" cx="112.29" cy="133.58" rx="103.06" ry="101.54" transform="translate(-24.6 241.8) rotate(-88.28)"/><ellipse class="cls-55" cx="112.5" cy="133.31" rx="103.06" ry="101.54" transform="translate(-24.13 241.76) rotate(-88.28)"/><ellipse class="cls-56" cx="112.71" cy="133.05" rx="103.06" ry="101.54" transform="translate(-23.66 241.71) rotate(-88.28)"/><ellipse class="cls-57" cx="112.92" cy="132.79" rx="103.06" ry="101.54" transform="translate(-23.2 241.67) rotate(-88.28)"/><ellipse class="cls-58" cx="113.13" cy="132.52" rx="103.06" ry="101.54" transform="translate(-22.73 241.62) rotate(-88.28)"/><ellipse class="cls-59" cx="113.34" cy="132.26" rx="103.06" ry="101.54" transform="translate(-22.26 241.58) rotate(-88.28)"/><ellipse class="cls-60" cx="113.55" cy="132" rx="103.06" ry="101.54" transform="translate(-21.79 241.53) rotate(-88.28)"/><ellipse class="cls-61" cx="113.76" cy="131.73" rx="103.06" ry="101.54" transform="translate(-21.33 241.49) rotate(-88.28)"/><ellipse class="cls-62" cx="113.97" cy="131.47" rx="103.06" ry="101.54" transform="translate(-20.86 241.44) rotate(-88.28)"/><ellipse class="cls-63" cx="114.18" cy="131.21" rx="103.06" ry="101.54" transform="translate(-20.39 241.4) rotate(-88.28)"/><ellipse class="cls-64" cx="114.39" cy="130.94" rx="103.06" ry="101.54" transform="translate(-19.92 241.35) rotate(-88.28)"/><ellipse class="cls-65" cx="114.61" cy="130.68" rx="103.06" ry="101.54" transform="translate(-19.46 241.31) rotate(-88.28)"/><ellipse class="cls-66" cx="114.82" cy="130.42" rx="103.06" ry="101.54" transform="translate(-18.99 241.26) rotate(-88.28)"/><ellipse class="cls-67" cx="115.03" cy="130.15" rx="103.06" ry="101.54" transform="translate(-18.52 241.22) rotate(-88.28)"/><ellipse class="cls-68" cx="115.24" cy="129.89" rx="103.06" ry="101.54" transform="translate(-18.05 241.17) rotate(-88.28)"/><ellipse class="cls-69" cx="115.45" cy="129.63" rx="103.06" ry="101.54" transform="translate(-17.59 241.13) rotate(-88.28)"/><ellipse class="cls-70" cx="115.66" cy="129.36" rx="103.06" ry="101.54" transform="translate(-17.12 241.08) rotate(-88.28)"/><ellipse class="cls-71" cx="115.87" cy="129.1" rx="103.06" ry="101.54" transform="translate(-16.65 241.04) rotate(-88.28)"/><ellipse class="cls-72" cx="116.08" cy="128.84" rx="103.06" ry="101.54" transform="translate(-16.18 240.99) rotate(-88.28)"/><ellipse class="cls-73" cx="116.29" cy="128.57" rx="103.06" ry="101.54" transform="translate(-15.72 240.95) rotate(-88.28)"/><ellipse class="cls-74" cx="116.5" cy="128.31" rx="103.06" ry="101.54" transform="translate(-15.25 240.9) rotate(-88.28)"/><ellipse class="cls-75" cx="116.71" cy="128.05" rx="103.06" ry="101.54" transform="translate(-14.78 240.86) rotate(-88.28)"/><ellipse class="cls-76" cx="116.92" cy="127.78" rx="103.06" ry="101.54" transform="translate(-14.31 240.81) rotate(-88.28)"/><ellipse class="cls-77" cx="117.13" cy="127.52" rx="103.06" ry="101.54" transform="translate(-13.85 240.77) rotate(-88.28)"/><ellipse class="cls-78" cx="117.34" cy="127.26" rx="103.06" ry="101.54" transform="translate(-13.38 240.72) rotate(-88.28)"/><ellipse class="cls-79" cx="117.55" cy="126.99" rx="103.06" ry="101.54" transform="translate(-12.91 240.68) rotate(-88.28)"/><ellipse class="cls-80" cx="117.76" cy="126.73" rx="103.06" ry="101.54" transform="translate(-12.45 240.63) rotate(-88.28)"/><ellipse class="cls-81" cx="117.98" cy="126.47" rx="103.06" ry="101.54" transform="translate(-11.98 240.59) rotate(-88.28)"/><ellipse class="cls-82" cx="118.19" cy="126.2" rx="103.06" ry="101.54" transform="translate(-11.51 240.55) rotate(-88.28)"/><ellipse class="cls-83" cx="118.4" cy="125.94" rx="103.06" ry="101.54" transform="translate(-11.04 240.5) rotate(-88.28)"/><ellipse class="cls-84" cx="118.61" cy="125.68" rx="103.06" ry="101.54" transform="translate(-10.58 240.46) rotate(-88.28)"/><ellipse class="cls-85" cx="118.82" cy="125.41" rx="103.06" ry="101.54" transform="translate(-10.11 240.41) rotate(-88.28)"/><ellipse class="cls-86" cx="119.03" cy="125.15" rx="103.06" ry="101.54" transform="translate(-9.64 240.37) rotate(-88.28)"/><ellipse class="cls-87" cx="119.24" cy="124.89" rx="103.06" ry="101.54" transform="translate(-9.17 240.32) rotate(-88.28)"/><ellipse class="cls-88" cx="119.45" cy="124.62" rx="103.06" ry="101.54" transform="translate(-8.71 240.28) rotate(-88.28)"/><ellipse class="cls-89" cx="119.66" cy="124.36" rx="103.06" ry="101.54" transform="translate(-8.24 240.23) rotate(-88.28)"/><ellipse class="cls-90" cx="119.87" cy="124.1" rx="103.06" ry="101.54" transform="translate(-7.77 240.19) rotate(-88.28)"/><ellipse class="cls-91" cx="120.08" cy="123.83" rx="103.06" ry="101.54" transform="translate(-7.3 240.14) rotate(-88.28)"/><ellipse class="cls-92" cx="120.29" cy="123.57" rx="103.06" ry="101.54" transform="translate(-6.84 240.1) rotate(-88.28)"/><ellipse class="cls-93" cx="120.5" cy="123.31" rx="103.06" ry="101.54" transform="translate(-6.37 240.05) rotate(-88.28)"/><ellipse class="cls-94" cx="120.71" cy="123.04" rx="103.06" ry="101.54" transform="translate(-5.9 240.01) rotate(-88.28)"/><ellipse class="cls-95" cx="120.92" cy="122.78" rx="103.06" ry="101.54" transform="translate(-5.43 239.96) rotate(-88.28)"/><ellipse class="cls-96" cx="121.13" cy="122.52" rx="103.06" ry="101.54" transform="translate(-4.97 239.92) rotate(-88.28)"/><ellipse class="cls-97" cx="121.35" cy="122.25" rx="103.06" ry="101.54" transform="translate(-4.5 239.87) rotate(-88.28)"/><ellipse class="cls-98" cx="121.56" cy="121.99" rx="103.06" ry="101.54" transform="translate(-4.03 239.83) rotate(-88.28)"/><ellipse class="cls-99" cx="121.77" cy="121.73" rx="103.06" ry="101.54" transform="translate(-3.56 239.78) rotate(-88.28)"/><ellipse class="cls-100" cx="121.98" cy="121.46" rx="103.06" ry="101.54" transform="translate(-3.1 239.74) rotate(-88.28)"/><ellipse class="cls-101" cx="122.19" cy="121.2" rx="103.06" ry="101.54" transform="translate(-2.63 239.69) rotate(-88.28)"/><ellipse class="cls-102" cx="122.4" cy="120.94" rx="103.06" ry="101.54" transform="translate(-2.16 239.65) rotate(-88.28)"/><ellipse class="cls-103" cx="122.61" cy="120.67" rx="103.06" ry="101.54" transform="translate(-1.69 239.6) rotate(-88.28)"/><ellipse class="cls-104" cx="122.82" cy="120.41" rx="103.06" ry="101.54" transform="translate(-1.23 239.56) rotate(-88.28)"/><ellipse class="cls-105" cx="123.03" cy="120.15" rx="103.06" ry="101.54" transform="translate(-0.76 239.51) rotate(-88.28)"/><ellipse class="cls-106" cx="123.24" cy="119.88" rx="103.06" ry="101.54" transform="translate(-0.29 239.47) rotate(-88.28)"/><ellipse class="cls-107" cx="123.45" cy="119.62" rx="103.06" ry="101.54" transform="translate(0.18 239.42) rotate(-88.28)"/><ellipse class="cls-108" cx="123.66" cy="119.36" rx="103.06" ry="101.54" transform="translate(0.64 239.38) rotate(-88.28)"/><ellipse class="cls-109" cx="123.87" cy="119.09" rx="103.06" ry="101.54" transform="translate(1.11 239.33) rotate(-88.28)"/><ellipse class="cls-110" cx="124.08" cy="118.83" rx="103.06" ry="101.54" transform="translate(1.58 239.29) rotate(-88.28)"/><ellipse class="cls-111" cx="124.29" cy="118.57" rx="103.06" ry="101.54" transform="translate(2.05 239.24) rotate(-88.28)"/><ellipse class="cls-112" cx="124.5" cy="118.3" rx="103.06" ry="101.54" transform="translate(2.51 239.2) rotate(-88.28)"/><ellipse class="cls-113" cx="124.72" cy="118.04" rx="103.06" ry="101.54" transform="translate(2.98 239.16) rotate(-88.28)"/><ellipse class="cls-114" cx="124.93" cy="117.78" rx="103.06" ry="101.54" transform="translate(3.45 239.11) rotate(-88.28)"/><ellipse class="cls-115" cx="125.14" cy="117.51" rx="103.06" ry="101.54" transform="translate(3.92 239.07) rotate(-88.28)"/><ellipse class="cls-116" cx="125.35" cy="117.25" rx="103.06" ry="101.54" transform="translate(4.38 239.02) rotate(-88.28)"/><ellipse class="cls-117" cx="125.56" cy="116.99" rx="103.06" ry="101.54" transform="translate(4.85 238.98) rotate(-88.28)"/><ellipse class="cls-118" cx="125.77" cy="116.73" rx="103.06" ry="101.54" transform="translate(5.32 238.93) rotate(-88.28)"/><ellipse class="cls-119" cx="125.98" cy="116.46" rx="103.06" ry="101.54" transform="translate(5.79 238.89) rotate(-88.28)"/><ellipse class="cls-120" cx="126.19" cy="116.2" rx="103.06" ry="101.54" transform="translate(6.25 238.84) rotate(-88.28)"/><ellipse class="cls-121" cx="126.4" cy="115.94" rx="103.06" ry="101.54" transform="translate(6.72 238.8) rotate(-88.28)"/><ellipse class="cls-122" cx="126.61" cy="115.67" rx="103.06" ry="101.54" transform="translate(7.19 238.75) rotate(-88.28)"/><ellipse class="cls-123" cx="126.82" cy="115.41" rx="103.06" ry="101.54" transform="translate(7.66 238.71) rotate(-88.28)"/><ellipse class="cls-124" cx="127.03" cy="115.15" rx="103.06" ry="101.54" transform="translate(8.12 238.66) rotate(-88.28)"/><ellipse class="cls-125" cx="127.24" cy="114.88" rx="103.06" ry="101.54" transform="translate(8.59 238.62) rotate(-88.28)"/><ellipse class="cls-126" cx="127.45" cy="114.62" rx="103.06" ry="101.54" transform="translate(9.06 238.57) rotate(-88.28)"/><ellipse class="cls-127" cx="127.66" cy="114.36" rx="103.06" ry="101.54" transform="translate(9.53 238.53) rotate(-88.28)"/><ellipse class="cls-128" cx="127.87" cy="114.09" rx="103.06" ry="101.54" transform="translate(9.99 238.48) rotate(-88.28)"/><ellipse class="cls-129" cx="128.09" cy="113.83" rx="103.06" ry="101.54" transform="translate(10.46 238.44) rotate(-88.28)"/><ellipse class="cls-130" cx="128.3" cy="113.57" rx="103.06" ry="101.54" transform="translate(10.93 238.39) rotate(-88.28)"/><ellipse class="cls-131" cx="128.51" cy="113.3" rx="103.06" ry="101.54" transform="translate(11.4 238.35) rotate(-88.28)"/><ellipse class="cls-132" cx="128.72" cy="113.04" rx="103.06" ry="101.54" transform="translate(11.86 238.3) rotate(-88.28)"/><ellipse class="cls-133" cx="128.93" cy="112.78" rx="103.06" ry="101.54" transform="translate(12.33 238.26) rotate(-88.28)"/><ellipse class="cls-134" cx="129.14" cy="112.51" rx="103.06" ry="101.54" transform="translate(12.8 238.21) rotate(-88.28)"/><ellipse class="cls-135" cx="129.35" cy="112.25" rx="103.06" ry="101.54" transform="translate(13.27 238.17) rotate(-88.28)"/><ellipse class="cls-136" cx="129.56" cy="111.99" rx="103.06" ry="101.54" transform="translate(13.73 238.12) rotate(-88.28)"/><ellipse class="cls-137" cx="129.77" cy="111.72" rx="103.06" ry="101.54" transform="translate(14.2 238.08) rotate(-88.28)"/><ellipse class="cls-138" cx="129.98" cy="111.46" rx="103.06" ry="101.54" transform="translate(14.67 238.03) rotate(-88.28)"/><ellipse class="cls-139" cx="130.19" cy="111.2" rx="103.06" ry="101.54" transform="translate(15.14 237.99) rotate(-88.28)"/><ellipse class="cls-140" cx="130.4" cy="110.93" rx="103.06" ry="101.54" transform="translate(15.6 237.94) rotate(-88.28)"/><ellipse class="cls-141" cx="130.61" cy="110.67" rx="103.06" ry="101.54" transform="translate(16.07 237.9) rotate(-88.28)"/><ellipse class="cls-142" cx="130.82" cy="110.41" rx="103.06" ry="101.54" transform="translate(16.54 237.85) rotate(-88.28)"/><ellipse class="cls-143" cx="131.03" cy="110.14" rx="103.06" ry="101.54" transform="translate(17.01 237.81) rotate(-88.28)"/><ellipse class="cls-144" cx="131.24" cy="109.88" rx="103.06" ry="101.54" transform="translate(17.47 237.76) rotate(-88.28)"/><ellipse class="cls-145" cx="131.46" cy="109.62" rx="103.06" ry="101.54" transform="matrix(0.03, -1, 1, 0.03, 17.94, 237.72)"/><ellipse class="cls-146" cx="131.67" cy="109.35" rx="103.06" ry="101.54" transform="translate(18.41 237.68) rotate(-88.28)"/><ellipse class="cls-147" cx="131.88" cy="109.09" rx="103.06" ry="101.54" transform="translate(18.88 237.63) rotate(-88.28)"/><ellipse class="cls-148" cx="132.09" cy="108.83" rx="103.06" ry="101.54" transform="translate(19.34 237.59) rotate(-88.28)"/><ellipse class="cls-149" cx="132.3" cy="108.56" rx="103.06" ry="101.54" transform="translate(19.81 237.54) rotate(-88.28)"/><ellipse class="cls-150" cx="132.51" cy="108.3" rx="103.06" ry="101.54" transform="translate(20.28 237.5) rotate(-88.28)"/><ellipse class="cls-151" cx="132.72" cy="108.04" rx="103.06" ry="101.54" transform="translate(20.74 237.45) rotate(-88.28)"/><ellipse class="cls-152" cx="132.93" cy="107.77" rx="103.06" ry="101.54" transform="translate(21.21 237.41) rotate(-88.28)"/><ellipse class="cls-153" cx="133.14" cy="107.51" rx="103.06" ry="101.54" transform="translate(21.68 237.36) rotate(-88.28)"/><ellipse class="cls-154" cx="133.35" cy="107.25" rx="103.06" ry="101.54" transform="translate(22.15 237.32) rotate(-88.28)"/><ellipse class="cls-155" cx="133.56" cy="106.98" rx="103.06" ry="101.54" transform="translate(22.61 237.27) rotate(-88.28)"/><ellipse class="cls-156" cx="133.77" cy="106.72" rx="103.06" ry="101.54" transform="translate(23.08 237.23) rotate(-88.28)"/><ellipse class="cls-157" cx="133.98" cy="106.46" rx="103.06" ry="101.54" transform="translate(23.55 237.18) rotate(-88.28)"/><ellipse class="cls-158" cx="134.19" cy="106.19" rx="103.06" ry="101.54" transform="translate(24.02 237.14) rotate(-88.28)"/><ellipse class="cls-159" cx="134.4" cy="105.93" rx="103.06" ry="101.54" transform="translate(24.48 237.09) rotate(-88.28)"/><ellipse class="cls-160" cx="134.61" cy="105.67" rx="103.06" ry="101.54" transform="translate(24.95 237.05) rotate(-88.28)"/><ellipse class="cls-161" cx="134.83" cy="105.4" rx="103.06" ry="101.54" transform="translate(25.42 237) rotate(-88.28)"/><ellipse class="cls-162" cx="135.04" cy="105.14" rx="103.06" ry="101.54" transform="translate(25.89 236.96) rotate(-88.28)"/><ellipse class="cls-163" cx="135.25" cy="104.88" rx="103.06" ry="101.54" transform="translate(26.35 236.91) rotate(-88.28)"/><ellipse class="cls-164" cx="135.46" cy="104.61" rx="103.06" ry="101.54" transform="translate(26.82 236.87) rotate(-88.28)"/><ellipse class="cls-165" cx="135.67" cy="104.35" rx="103.06" ry="101.54" transform="translate(27.29 236.82) rotate(-88.28)"/><ellipse class="cls-166" cx="135.88" cy="104.09" rx="103.06" ry="101.54" transform="translate(27.76 236.78) rotate(-88.28)"/><ellipse class="cls-167" cx="136.09" cy="103.82" rx="103.06" ry="101.54" transform="translate(28.22 236.73) rotate(-88.28)"/><ellipse class="cls-168" cx="136.3" cy="103.56" rx="103.06" ry="101.54" transform="translate(28.69 236.69) rotate(-88.28)"/><ellipse class="cls-169" cx="136.51" cy="103.3" rx="103.06" ry="101.54" transform="translate(29.16 236.64) rotate(-88.28)"/></g><ellipse class="cls-170" cx="136.51" cy="103.06" rx="103.06" ry="101.54" transform="translate(29.39 236.42) rotate(-88.28)"/><circle class="cls-171" cx="136.41" cy="103.22" r="99.65"/><path class="cls-3" d="M206.14,64.22a11.22,11.22,0,0,0-15.74-1.88s-61.05,51.31-62.81,52.86l-24-21.2a14.06,14.06,0,0,0-17.92-.55c-6.12,4.76-6.35,11.84-1.58,18L114,152.76l.46.57a16.91,16.91,0,0,0,23.84,1.93l67-78,.2-.21C209.25,73.1,209.62,68.64,206.14,64.22Z"/><path class="cls-172" d="M206.14,59.85A11.22,11.22,0,0,0,190.4,58s-61.05,51.31-62.81,52.86l-24-21.2a14,14,0,0,0-20.38,19.16L114,148.39l.46.57a16.91,16.91,0,0,0,23.84,1.93l67-76.23.2-.21A11.21,11.21,0,0,0,206.14,59.85Z"/><path class="cls-173" d="M85.63,96.07a14.07,14.07,0,0,1,17.92.55l19.38,22.23a4.41,4.41,0,0,0,6.23.41L190.4,65A11.21,11.21,0,0,1,208,70.28,11.21,11.21,0,0,0,190.4,58s-61.05,51.31-62.81,52.86l-24-21.2a14,14,0,0,0-22.89,14.05A14,14,0,0,1,85.63,96.07Z"/></g></g></g></svg>